<?xml version="1.0" encoding="UTF-8" standalone="no"?>
<!-- Generator: Adobe Illustrator 14.0.0, SVG Export Plug-In . SVG Version: 6.00 Build 43363)  -->

<svg
   version="1.0"
   id="Layer_1"
   x="0px"
   y="0px"
   width="321.8172"
   height="53.412457"
   viewBox="0 0 490.54136 682.84973"
   enable-background="new 0 0 595.276 841.891"
   xml:space="preserve"
   sodipodi:version="0.32"
   inkscape:version="1.4.4 (dcaf3e7d9e, 2026-05-05)"
   sodipodi:docname="Barclays_logo copy.svg"
   inkscape:output_extension="org.inkscape.output.svg.inkscape"
   xmlns:inkscape="http://www.inkscape.org/namespaces/inkscape"
   xmlns:sodipodi="http://sodipodi.sourceforge.net/DTD/sodipodi-0.dtd"
   xmlns="http://www.w3.org/2000/svg"
   xmlns:svg="http://www.w3.org/2000/svg"
   xmlns:rdf="http://www.w3.org/1999/02/22-rdf-syntax-ns#"
   xmlns:cc="http://creativecommons.org/ns#"
   xmlns:dc="http://purl.org/dc/elements/1.1/"><metadata
   id="metadata4205"><rdf:RDF><cc:Work
       rdf:about=""><dc:format>image/svg+xml</dc:format><dc:type
         rdf:resource="http://purl.org/dc/dcmitype/StillImage" /></cc:Work></rdf:RDF></metadata><defs
   id="defs4203"><inkscape:perspective
   sodipodi:type="inkscape:persp3d"
   inkscape:vp_x="0 : 261.90423 : 1"
   inkscape:vp_y="0 : 1000 : 0"
   inkscape:vp_z="595.276 : 261.90423 : 1"
   inkscape:persp3d-origin="297.638 : 121.58906 : 1"
   id="perspective4207" />
	<defs
   id="defs4018">
		<path
   d="m -203.862,562.153 v -114.52 c 0.001,-6.594 4.899,-11.354 11.362,-11.354 -6.463,0 -11.702,-5.348 -11.702,-11.939 l -0.03,-32.203 c 0,-2.888 2.294,-5.227 5.118,-5.227 H 79.182 c 11.734,0 21.246,9.703 21.246,21.671 v 164.288 c 0,5.41 -4.301,10.952 -9.608,10.952 h -273.436 c -11.739,0 -21.246,-12.784 -21.246,-21.668"
   id="SVGID_676_" />
	</defs>
	
	
	
	
	
	
	
	
	
	
	
	
	
	
	
	
	
	
	
	
	
</defs><sodipodi:namedview
   inkscape:window-height="730"
   inkscape:window-width="1280"
   inkscape:pageshadow="2"
   inkscape:pageopacity="0.0"
   guidetolerance="10.0"
   gridtolerance="10.0"
   objecttolerance="10.0"
   borderopacity="1.0"
   bordercolor="#666666"
   pagecolor="#ffffff"
   id="base"
   showgrid="false"
   inkscape:zoom="4.390117"
   inkscape:cx="35.876037"
   inkscape:cy="31.206458"
   inkscape:window-x="0"
   inkscape:window-y="0"
   inkscape:current-layer="Layer_1"
   inkscape:showpageshadow="2"
   inkscape:pagecheckerboard="0"
   inkscape:deskcolor="#d1d1d1"
   inkscape:window-maximized="1" />





















































































































































































































































<path
   id="path21"
   d="m 2285.7738,164.90889 c -26.6682,-48.32936 -84.1547,-84.984705 -146.5946,-84.984705 -54.9161,0 -103.2187,22.491225 -103.2187,80.807765 0,49.10585 60.8066,82.41428 124.1034,123.24657 69.0802,43.29561 140.7308,96.55162 140.7308,189.03341 0,120.75646 -117.4096,194.84364 -253.1602,194.84364 -55.7997,0 -114.0626,-10.81721 -179.8495,-35.79854 l 10.7904,-160.73195 c 31.6752,64.15355 90.8218,114.91946 178.1895,114.91946 67.4737,0 117.4095,-32.45163 117.4095,-89.10811 0,-48.30258 -40.8323,-78.2641 -90.7414,-108.22564 C 1978.474,325.64084 1911.9107,274.7946 1911.9107,183.22317 1911.9107,45.785715 2026.8033,0 2145.873,0 c 69.0802,0 112.4293,12.504052 156.5282,12.504052 l -16.6274,152.404828 m -582.0409,144.02418 c -15.0477,25.0081 -34.1117,59.09302 -45.8392,84.1279 -9.9604,47.44578 -14.9674,110.76929 -14.9674,180.67952 0,29.15827 5.007,68.27694 18.3143,81.61102 h -174.0125 c 30.7648,-29.13149 43.2956,-208.12417 41.6623,-264.78064 -23.3212,-80.75422 -55.0232,-158.21507 -103.299,-252.33015 -30.738,-59.093015 -66.5901,-114.946225 -89.0813,-125.736658 39.1187,-3.293359 89.0813,-5.810234 113.2594,-5.810234 43.2688,0 54.9696,5.810234 81.6378,64.126767 41.5552,94.115075 72.3736,164.828565 90.7146,217.334865 44.1524,-69.13375 74.944,-116.57952 114.9195,-181.53633 9.9871,-15.824175 18.3143,-35.798535 18.3143,-54.969625 0,-15.02093 -2.5169,-31.648368 -9.1572,-39.145443 h 172.3792 C 1885.2693,20.001127 1735.3545,255.67706 1703.7329,308.93307 M 1098.3441,163.2756 995.12543,387.22396 H 1163.3009 L 1098.3441,163.2756 m 202.3675,497.88615 c -54.9964,0 -59.1198,-1.63329 -103.2722,-153.18132 l -15.7975,-55.79966 c -26.6146,12.47727 -74.1407,18.31428 -149.8879,18.31428 h -76.60407 l -13.334,28.30146 c -19.1444,42.51913 -44.9557,92.40146 -44.9557,127.45029 0,8.3271 0.83,17.45747 4.1769,29.13149 H 446.36629 C 472.20442,626.2468 480.53153,532.1585 493.00881,361.4126 l 2.4901,-40.77874 c 6.66704,-97.4352 11.72757,-172.37918 10.84398,-224.805165 -0.83003,-43.29561 -5.00697,-70.79382 -16.65422,-83.271093 h 175.72606 c -25.0081,19.171093 -34.192,122.389768 -45.8124,293.135658 l -3.347,40.77874 c -4.1769,63.29674 -12.4772,128.22677 -12.4772,191.52351 0,29.10471 11.6472,35.77176 41.6623,35.77176 106.5388,0 133.2337,-2.4901 181.4828,-34.96851 29.9615,-54.96964 64.1535,-124.10337 97.4084,-195.70044 l 45.036,-95.74837 c 42.43877,-89.93813 84.04757,-181.563115 84.04757,-199.020585 0,-12.53083 -3.3202,-24.1513 -8.2736,-35.825313 h 139.874 c 0,0 56.603,209.864568 69.107,254.793478 l 27.4447,101.61215 c 47.4457,170.71912 77.4608,253.96342 117.4363,286.44183 -33.362,4.17695 -80.8078,5.81024 -98.292,5.81024 M 167.4483,667.85557 C 1.7361488,667.85557 -94.038991,531.30169 -94.038991,378.09359 -94.038991,164.93567 21.683729,0 242.3655,0 311.47248,0 343.97765,12.504052 399.72377,12.504052 L 383.09632,176.55614 C 351.44795,119.09641 299.79846,79.950955 230.71826,79.950955 c -137.383911,0 -193.183571,148.254675 -193.183571,275.651415 0,138.21394 77.460851,213.96118 180.679521,213.96118 55.79966,0 104.90551,-14.99415 187.37334,-72.42711 C 372.27911,603.75557 294.81826,667.85557 167.4483,667.85557 M -407.09544,90.794945 c -15.82419,0 -35.02205,0 -49.96266,1.66006 -5.00697,27.471435 -9.18391,74.943985 -15.02092,151.521265 l -3.34691,45.00922 c 8.38066,1.68685 19.17109,2.54366 29.18504,2.54366 79.89741,0 134.89381,-48.35614 134.89381,-121.58651 0,-50.0162 -34.9685,-79.147695 -95.74836,-79.147695 m 232.27546,592.054775 c -47.44578,0 -59.11979,-7.52385 -74.9172,-29.18505 L -429.61344,403.8514 c -14.16412,-19.14432 -24.98133,-34.9685 -47.44578,-34.9685 h -4.17694 l -3.29336,48.30259 c -4.20372,65.78684 -6.69382,118.29314 -6.69382,157.41181 0.83003,43.29561 5.83701,69.91023 17.51103,80.75421 H -647.7516 c 24.9546,-22.49122 34.085,-97.4352 48.27584,-293.96569 l 2.51688,-40.77873 c 6.66704,-96.5784 11.67401,-171.54916 10.8172,-223.975145 -0.8568,-45.81248 -5.81023,-74.14072 -18.34106,-84.127893 99.09528,0 237.30922,0 237.30922,0 77.43408,0 184.02643,13.360863 184.02643,139.070758 0,103.21866 -69.13374,159.87514 -154.86816,186.48975 8.32711,7.52386 23.29449,26.66817 32.4784,38.34219 l 130.71687,173.20922 c 81.611029,107.42239 88.251289,112.40259 117.436339,127.39674 -36.65535,4.15016 -85.761189,5.83701 -117.436339,5.83701 M -985.7894,163.2756 -1089.9452,387.22396 h 169.0323 L -985.7894,163.2756 m 202.2872,497.88615 c -54.9161,0 -59.093,-1.63329 -103.2187,-153.18132 l -15.8241,-55.79966 c -26.695,12.47727 -74.1408,18.31428 -149.9148,18.31428 h -76.604 l -13.3073,28.30146 c -13.3341,30.01508 -45.8125,91.65175 -44.9825,127.45029 0,8.3271 0.8301,16.65421 4.177,29.13149 h -154.0382 c 44.1257,-44.12565 99.9253,-146.54105 177.3594,-312.2532 l 44.9825,-95.74837 c 40.7787,-86.59122 84.1011,-184.856465 84.1011,-199.020585 0,-12.53082 -3.2934,-24.15129 -8.3271,-35.825308 h 139.9275 c 0,0 36.5751,139.070753 69.0802,254.793473 l 27.4715,101.61215 c 47.4725,170.71912 77.4341,253.96344 117.4095,286.44184 -35.7985,4.15017 -80.781,5.78346 -98.292,5.78346 M -1576.2376,89.964905 c -12.5041,0 -29.1315,0 -44.9557,1.68684 -6.6671,44.955685 -10.844,88.251295 -14.1374,135.697075 0,0 -2.5168,40.77874 -2.5168,39.11867 h 16.6542 c 81.611,0 156.5818,-28.30146 156.5818,-103.19189 0,-43.34916 -35.8254,-73.310695 -111.6261,-73.310695 m -20.7776,254.793475 h -45.7858 l -6.667,94.91833 c -3.3201,41.66232 -5.007,76.60405 -5.837,118.2396 0,5.86378 18.3143,18.34106 61.5831,18.34106 89.9381,0 149.0847,-44.95568 149.0847,-119.0964 0,-82.44106 -67.4737,-112.4026 -152.378,-112.4026 m 9.9871,310.59313 H -1811.86 c 28.3282,-25.0081 35.8253,-122.41653 48.3026,-293.96569 l 2.4901,-39.9487 c 6.6938,-97.43521 11.674,-172.37919 10.844,-224.805165 -0.8301,-44.98245 -5.8371,-74.14072 -18.3411,-84.127893 h 251.4733 c 59.9499,0 179.8763,3.346908 179.8763,128.226758 0,83.27109 -77.4608,134.89381 -148.2279,153.26165 99.9253,9.98718 174.8693,58.26299 174.8693,161.50843 -0.027,111.57255 -104.9323,199.85061 -276.4547,199.85061"
   style="fill:#00aeef;stroke-width:26.7753" />
		
	














</svg>
